{
  "accessors": [
    {
      "bufferView": 2,
      "componentType": 5126,
      "count": 5129,
      "max": [
        0.024502580985426903,
        0.024244768545031548,
        0.006753054913133383
      ],
      "min": [
        -0.023669444024562836,
        -0.024468770250678062,
        -0.004957230295985937
      ],
      "type": "VEC3"
    },
    {
      "bufferView": 2,
      "byteOffset": 61548,
      "componentType": 5126,
      "count": 5129,
      "max": [
        0.9999322891235352,
        0.9986942410469055,
        0.9999920129776001
      ],
      "min": [
        -0.9998311996459961,
        -0.9984951019287109,
        -0.999995231628418
      ],
      "type": "VEC3"
    },
    {
      "bufferView": 3,
      "componentType": 5126,
      "count": 5129,
      "max": [
        0.9827214479446411,
        0.9816662669181824,
        0.9993327856063843,
        1.0
      ],
      "min": [
        -0.5910951495170593,
        -0.8759604096412659,
        -0.9998089671134949,
        1.0
      ],
      "type": "VEC4"
    },
    {
      "bufferView": 1,
      "componentType": 5126,
      "count": 5129,
      "max": [
        0.9862463474273682,
        0.9873254299163818
      ],
      "min": [
        0.009431004524230957,
        0.013035029172897339
      ],
      "type": "VEC2"
    },
    {
      "bufferView": 0,
      "componentType": 5125,
      "count": 29952,
      "type": "SCALAR"
    }
  ],
  "asset": {
    "extras": {
      "author": "James West (https://sketchfab.com/Jameswest)",
      "license": "SKETCHFAB Standard (https://sketchfab.com/licenses)",
      "source": "https://sketchfab.com/3d-models/chocolate-chip-cookie-3-8c55848bea9d4fe8bb71a6c2d59bb74e",
      "title": "Chocolate Chip Cookie 3"
    },
    "generator": "Sketchfab-12.66.0",
    "version": "2.0"
  },
  "bufferViews": [
    {
      "buffer": 0,
      "byteLength": 119808,
      "name": "floatBufferViews",
      "target": 34963
    },
    {
      "buffer": 0,
      "byteLength": 41032,
      "byteOffset": 119808,
      "byteStride": 8,
      "name": "floatBufferViews",
      "target": 34962
    },
    {
      "buffer": 0,
      "byteLength": 123096,
      "byteOffset": 160840,
      "byteStride": 12,
      "name": "floatBufferViews",
      "target": 34962
    },
    {
      "buffer": 0,
      "byteLength": 82064,
      "byteOffset": 283936,
      "byteStride": 16,
      "name": "floatBufferViews",
      "target": 34962
    }
  ],
  "buffers": [
    {
      "byteLength": 366000,
      "uri": "scene.bin"
    }
  ],
  "images": [
    {
      "uri": "textures/Choc_Chip_Cookie_3_Base_LOD_2_baseColor.jpeg"
    },
    {
      "uri": "textures/Choc_Chip_Cookie_3_Base_LOD_2_metallicRoughness.png"
    },
    {
      "uri": "textures/Choc_Chip_Cookie_3_Base_LOD_2_normal.png"
    }
  ],
  "materials": [
    {
      "doubleSided": true,
      "name": "Choc_Chip_Cookie_3_Base_LOD_2",
      "normalTexture": {
        "index": 2
      },
      "occlusionTexture": {
        "index": 1
      },
      "pbrMetallicRoughness": {
        "baseColorTexture": {
          "index": 0
        },
        "metallicFactor": 0.0,
        "metallicRoughnessTexture": {
          "index": 1
        }
      }
    }
  ],
  "meshes": [
    {
      "name": "Choc Chip Cookie 3 Base LOD 2_Choc Chip Cookie 3 Base LOD 2_0",
      "primitives": [
        {
          "attributes": {
            "NORMAL": 1,
            "POSITION": 0,
            "TANGENT": 2,
            "TEXCOORD_0": 3
          },
          "indices": 4,
          "material": 0,
          "mode": 4
        }
      ]
    }
  ],
  "nodes": [
    {
      "children": [
        1
      ],
      "matrix": [
        1.0,
        0.0,
        0.0,
        0.0,
        0.0,
        2.220446049250313e-16,
        -1.0,
        0.0,
        0.0,
        1.0,
        2.220446049250313e-16,
        0.0,
        0.0,
        0.0,
        0.0,
        1.0
      ],
      "name": "Sketchfab_model"
    },
    {
      "children": [
        2
      ],
      "matrix": [
        0.009999999776482582,
        0.0,
        0.0,
        0.0,
        0.0,
        0.0,
        0.009999999776482582,
        0.0,
        0.0,
        -0.009999999776482582,
        0.0,
        0.0,
        0.0,
        0.0,
        0.0,
        1.0
      ],
      "name": "2f99fed4f17c4d3795fc9f7be67eafb5.fbx"
    },
    {
      "children": [
        3
      ],
      "name": "RootNode"
    },
    {
      "children": [
        4
      ],
      "matrix": [
        100.0,
        0.0,
        0.0,
        0.0,
        0.0,
        -1.629206793918314e-05,
        -99.99999999999868,
        0.0,
        0.0,
        99.99999999999868,
        -1.629206793918314e-05,
        0.0,
        0.0,
        0.0,
        3.849500894546509,
        1.0
      ],
      "name": "Choc Chip Cookie 3 Base LOD 2"
    },
    {
      "mesh": 0,
      "name": "Choc Chip Cookie 3 Base LOD 2_Choc Chip Cookie 3 Base LOD 2_0"
    }
  ],
  "samplers": [
    {
      "magFilter": 9729,
      "minFilter": 9987,
      "wrapS": 10497,
      "wrapT": 10497
    }
  ],
  "scene": 0,
  "scenes": [
    {
      "name": "Sketchfab_Scene",
      "nodes": [
        0
      ]
    }
  ],
  "textures": [
    {
      "sampler": 0,
      "source": 0
    },
    {
      "sampler": 0,
      "source": 1
    },
    {
      "sampler": 0,
      "source": 2
    }
  ]
}
