<!DOCTYPE svg PUBLIC "-//W3C//DTD SVG 1.1//EN" "http://www.w3.org/Graphics/SVG/1.1/DTD/svg11.dtd">
<!-- Uploaded to: SVG Repo, www.svgrepo.com, Transformed by: SVG Repo Mixer Tools -->
<svg version="1.1" id="Layer_1" xmlns="http://www.w3.org/2000/svg" xmlns:xlink="http://www.w3.org/1999/xlink" viewBox="0 0 512.001 512.001" xml:space="preserve" width="72px" height="72px" fill="#000000" transform="rotate(270)">
<g id="SVGRepo_bgCarrier" stroke-width="0"/>
<g id="SVGRepo_tracerCarrier" stroke-linecap="round" stroke-linejoin="round"/>
<g id="SVGRepo_iconCarrier"> <rect x="239.987" y="336.062" style="fill:#B2446D;" width="32.025" height="112.093"/> <rect x="256.005" y="336.093" style="fill:#FF7BAC;" width="15.602" height="112.333"/> <rect x="239.987" y="336.062" style="fill:#9E005D;" width="32.025" height="24.016"/> <path d="M290.204,6.91C279.367,2.324,267.859,0,256.001,0c-11.858,0-23.366,2.324-34.203,6.91 c-38.762,16.395-59.398,60.68-48.001,103.012l52.207,193.912h22.471l-0.208,24.429h-16.079v127.692h15.493v9.921 c-9.039,3.382-15.493,12.106-15.493,22.311c0,13.131,10.683,23.815,23.813,23.815s23.813-10.683,23.813-23.815 c0-10.593-6.953-19.587-16.533-22.671v-9.56h16.533V328.263h-15.945l0.208-24.429h21.923l52.207-193.912 C349.602,67.589,328.966,23.304,290.204,6.91z M237.96,288.231l-49.099-182.367c-7.526-27.954,1.79-56.875,22.092-74.13 c-1.807,5.035-2.799,10.456-2.799,16.105v0.5l30.964,239.892H237.96z M264.212,488.185c0,4.529-3.684,8.213-8.212,8.213 c-4.528,0-8.212-3.684-8.212-8.213c0-4.529,3.684-8.213,8.212-8.213C260.528,479.973,264.212,483.658,264.212,488.185z M264.212,440.353h-16.423v-72.02h16.423V440.353z M264.212,343.865v8.866h-16.423v-8.866H264.212z M263.679,237.634l-0.397-181.353 l-15.602,0.034l0.393,179.379L223.773,47.365c0.213-14.689,10.301-27.023,23.906-30.664v31.275h15.602V16.444 c14.128,3.276,24.729,15.862,24.946,30.923L263.679,237.634z M323.14,105.864l-49.099,182.367h-1.16L303.776,48.84l0.071-0.498v-0.5 c0-5.651-0.991-11.072-2.799-16.108C321.349,48.99,330.666,77.909,323.14,105.864z"/> </g>
</svg>